<svg width="40" height="40" viewBox="0 0 40 40" fill="none" xmlns="http://www.w3.org/2000/svg">
<path d="M39.9985 20.0007C39.9985 30.1019 32.5109 38.4528 22.7838 39.8079C21.8743 39.9341 20.9438 39.9999 19.9993 39.9999C18.909 39.9999 17.8383 39.9131 16.7957 39.7449C7.27323 38.2118 0 29.9548 0 20.0007C0 8.9549 8.9549 0 20.0007 0C31.0464 0 40.0013 8.9549 40.0013 20.0007H39.9985Z" fill="white"/>
<path d="M22.7838 16.06V20.4169H28.1736L27.3201 26.2859H22.7838V39.8079C21.8743 39.9341 20.9438 39.9999 19.9993 39.9999C18.909 39.9999 17.8383 39.9131 16.7957 39.7449V26.2859H11.825V20.4169H16.7957V15.086C16.7957 11.7787 19.4766 9.09644 22.7852 9.09644V9.09924C22.7951 9.09924 22.8035 9.09644 22.8133 9.09644H28.175V14.1723H24.6715C23.6303 14.1723 22.7852 15.0173 22.7852 16.0586L22.7838 16.06Z" fill="#454543"/>
</svg>
