<svg width="37" height="38" viewBox="0 0 37 38" fill="none" xmlns="http://www.w3.org/2000/svg">
<path d="M17.3438 31.7188C17.3438 32.0254 17.2219 32.3195 17.0051 32.5363C16.7883 32.7532 16.4942 32.875 16.1875 32.875H6.9375C6.63084 32.875 6.33675 32.7532 6.11991 32.5363C5.90307 32.3195 5.78125 32.0254 5.78125 31.7188V6.28125C5.78125 5.97459 5.90307 5.6805 6.11991 5.46366C6.33675 5.24682 6.63084 5.125 6.9375 5.125H16.1875C16.4942 5.125 16.7883 5.24682 17.0051 5.46366C17.2219 5.6805 17.3438 5.97459 17.3438 6.28125C17.3438 6.58791 17.2219 6.882 17.0051 7.09884C16.7883 7.31568 16.4942 7.4375 16.1875 7.4375H8.09375V30.5625H16.1875C16.4942 30.5625 16.7883 30.6843 17.0051 30.9012C17.2219 31.118 17.3438 31.4121 17.3438 31.7188ZM33.193 18.182L27.4118 12.4007C27.1948 12.1837 26.9006 12.0619 26.5938 12.0619C26.2869 12.0619 25.9927 12.1837 25.7757 12.4007C25.5587 12.6177 25.4369 12.9119 25.4369 13.2188C25.4369 13.5256 25.5587 13.8198 25.7757 14.0368L29.5841 17.8438H16.1875C15.8808 17.8438 15.5867 17.9656 15.3699 18.1824C15.1531 18.3992 15.0312 18.6933 15.0312 19C15.0312 19.3067 15.1531 19.6008 15.3699 19.8176C15.5867 20.0344 15.8808 20.1562 16.1875 20.1562H29.5841L25.7757 23.9632C25.5587 24.1802 25.4369 24.4744 25.4369 24.7812C25.4369 25.0881 25.5587 25.3823 25.7757 25.5993C25.9927 25.8163 26.2869 25.9381 26.5938 25.9381C26.9006 25.9381 27.1948 25.8163 27.4118 25.5993L33.193 19.818C33.3005 19.7107 33.3858 19.5831 33.444 19.4428C33.5022 19.3024 33.5322 19.1519 33.5322 19C33.5322 18.8481 33.5022 18.6976 33.444 18.5572C33.3858 18.4169 33.3005 18.2893 33.193 18.182Z" fill="white"/>
</svg>
