<svg width="40" height="40" viewBox="0 0 40 40" fill="none" xmlns="http://www.w3.org/2000/svg">
<path d="M20.0468 0H19.9557C8.93513 0 0.0012207 8.9339 0.0012207 19.9544V20.0455C0.0012207 31.0661 8.93513 40 19.9557 40H20.0468C31.0673 40 40.0012 31.0661 40.0012 20.0455V19.9544C40.0012 8.9339 31.0673 0 20.0468 0Z" fill="white"/>
<path d="M29.6702 14.4707V18.2475C29.0102 18.183 28.1525 18.0331 27.2038 17.6855C25.9649 17.2315 25.0428 16.6107 24.4388 16.13V23.7634L24.4234 23.7395C24.4332 23.8909 24.4388 24.045 24.4388 24.2006C24.4388 27.9914 21.3544 31.0772 17.5622 31.0772C13.77 31.0772 10.6855 27.9914 10.6855 24.2006C10.6855 20.4098 13.77 17.3226 17.5622 17.3226C17.9336 17.3226 18.2979 17.352 18.6539 17.4095V21.1315C18.3119 21.0096 17.9448 20.9438 17.5622 20.9438C15.767 20.9438 14.3054 22.404 14.3054 24.2006C14.3054 25.9972 15.767 27.4574 17.5622 27.4574C19.3574 27.4574 20.819 25.9958 20.819 24.2006C20.819 24.1333 20.8176 24.0661 20.8134 23.9988V9.16504H24.5874C24.6014 9.48456 24.614 9.80688 24.628 10.1264C24.6532 10.7556 24.8775 11.3596 25.2685 11.8543C25.7267 12.4359 26.4036 13.1114 27.3537 13.6509C28.2436 14.154 29.0788 14.3712 29.6702 14.4735V14.4707Z" fill="#454543"/>
</svg>
