<svg width="40" height="40" viewBox="0 0 40 40" fill="none" xmlns="http://www.w3.org/2000/svg">
<path d="M20.047 0H19.9559C8.93537 0 0.00146484 8.93392 0.00146484 19.9545V20.0456C0.00146484 31.0661 8.93537 40 19.9559 40H20.047C31.0675 40 40.0015 31.0661 40.0015 20.0456V19.9545C40.0015 8.93392 31.0675 0 20.047 0Z" fill="white"/>
<path d="M26.5916 33.1246H22.208C18.2603 33.1246 15.3188 31.094 15.3188 26.2354V18.4548H11.7312V14.2423C15.6789 13.2178 17.3298 9.81946 17.5204 6.87793H21.6194V13.5584H26.4024V18.4548H21.6194V25.2306C21.6194 27.2612 22.6439 27.9633 24.2765 27.9633H26.5916V33.1261V33.1246Z" fill="#454543"/>
</svg>
